<svg xmlns="http://www.w3.org/2000/svg" viewBox="0 0 636.4 130.6"><defs><style>.cls-1{fill:#c6e7f9;}.cls-2{fill:#d2ecfa;}.cls-3{fill:#fff;}.cls-4{fill:#e5c2db;}.cls-5{fill:#f7c9dd;}.cls-6{fill:#0080cb;}.cls-7{fill:#fff6e9;}.cls-8{fill:#0062b1;}</style></defs><g id="レイヤー_2" data-name="レイヤー 2"><g id="レイヤー_1-2" data-name="レイヤー 1"><g id="h_logo"><path class="cls-1" d="M8.5,41c-.1-2.2,2-4.9,6.4-5.3.1,3.8,2.7,11.9,11,17l-1.5.9a25.8,25.8,0,0,0-5.5-3.7c-3-1.6-7.4-.7-7.4-.7a6.2,6.2,0,0,0-.2-3.5C10.6,44.4,8.7,43.2,8.5,41Z"/><path class="cls-2" d="M76.6,98.2a3.6,3.6,0,0,1,3,2s.1.5-.4.4a2.3,2.3,0,0,0-1.1-.1,1.3,1.3,0,0,1-.2-.6,3.9,3.9,0,0,0-2.2-1.3C75.6,98.1,76.1,98.2,76.6,98.2Z"/><path class="cls-1" d="M86.8,72.3c-1.3,2.1-3.6.8-4.2.3s-3.5-1.5-4.9.1a21.9,21.9,0,0,0-3.1,5.2c-.3.9-1.2,1.1-1.3.6a21.1,21.1,0,0,0-5.9-6c-1.8-1.1-1.9.5-.9.9s5.5,3.4,5.4,11.7-3.2,12.5-8.1,15.2a1.3,1.3,0,0,1-.8.1.8.8,0,0,1,.2-.7s2.5-1,2.1-2.9-4.6-1.5-4.6-1.5a3.6,3.6,0,0,0,1.1-3.8c-.8-2.2-3.8-1-3.8-1s1-2.6-.8-3.7-3.6.3-4.1.9a3.4,3.4,0,0,0-.6,1.6s-.8-.1-.8.2.2.4,1.2.8,7.9,6,8.2,9.7c-.1.4-1.2-.1-1.2-.1a17.6,17.6,0,0,1-7.2-6.4c-3.2-4.9-2-6.5-1.2-7.1s2.2.2,3.2-.7,2.2-2.1,2.3-3.1-1.3-1-1.6-.6a3.9,3.9,0,0,1-2.9,2.2c-1.9.3-4.1,1.2-4.3,4.1s2.5,9.5,9,12.8,10.7.1,13.6-3.4a14.5,14.5,0,0,1,2.2.9c.4.2-.4.8-.6,1.1a4.1,4.1,0,0,0,.4,3.3c-3.7,0-3.9,2.8-3.6,3.9a3.5,3.5,0,0,0,1.8,1.9,2.8,2.8,0,0,0-1.1,2.1c0,1.3,1.8,1.6,1.8,1.6v.9s0,1.4.7,1.4.6-1.1.6-1.1a17.7,17.7,0,0,1,.9-7.2c1.4-3.4,3-5,4.9-5.2s1.8,3.3.9,7.9-4.1,8.6-7.6,9.8a2,2,0,0,1-2.6-1.4c0-.9-.4-1.1-.9-1s-.6.7-.6.7a6.3,6.3,0,0,1-2.2-.2c-.5-.3-.8-1.2-1.7-1.1s-6.5,1-10.8,1.1-8.5.1-11.8-.9-3.4-1.8-3.8-1.2,0,1,1.8,1.9A30,30,0,0,0,52,118.6a18.5,18.5,0,0,0,.8,5.3c.3,1.1.6,1.2,1,1.2a.9.9,0,0,1,.5,1.5c-.5.8-2.7,1.3-2.7,1.3s-.4-2.5-2.4-2.5a4.7,4.7,0,0,0-3.6,2.3c-.8-2.2-3.3-3.3-6-.6,0,0-.2.1-.2-.2a2.3,2.3,0,0,0-1.4-2.2,3,3,0,0,0-4,2.6l-.4-.3a2.6,2.6,0,0,1,1.1-1.9l.5-.4a12,12,0,0,0-.9-1.2c-.6-.8-4.7-7.1-6.1-12.4,2,1,3,.9,2.7.3s-3.7-1.3-7.4-8.7S20,91.5,20.3,84.3s2.7-9.1,2.3-10.6-1.3.3-2,1.1-1.8,4.8-3.1,9.9A20.7,20.7,0,0,1,5.3,77.1C2.1,72.5,1.6,70,3.1,62.9a20.8,20.8,0,0,1,2.4-5.3s-.3,2.2,2.6,1.6c-.7,2.8,1,3.5,2.5,2.9S12.4,61,12.4,61s.7-.4.3-1-3.3-2.1-2.5-6.6,8.3-2.3,11.3-.1,2.2,3.7,3.8,4.8a5.6,5.6,0,0,1-5.4,6.3c-1.9.1-4.5-1.8-4.5-1.8l-.4-.3s-.7.3-.1,1.3,4.1,3.8,8.3,1.7a9,9,0,0,0,.7,4.3c.5.9,1.4.6,1.2-.3a7.5,7.5,0,0,1-.2-4.9,7.2,7.2,0,0,0,2.2-5.9,11.6,11.6,0,0,0,4.1,0,39.4,39.4,0,0,1,1.6,4.1c.2,1.3.5,6,2,9.5a4.3,4.3,0,0,0,5.9,2.4c1-.5,3.1-4,4.3-6.5s2.3-4.5,3.3-5a2.9,2.9,0,0,0,2.5.6c.3-.3-.1-.8-.6-1.1s-1.4-1.1-1.5-3.7.6-3.8,1.5-4.7,1.1-1.4.3-1.4a5.5,5.5,0,0,0-2.6,1.4c-.5-1.6-1.3-2.6-2.5-2.6s-2.1,1.1-2.7,2c-2.2-.3-7.9-3.4-11.5-10.5S30,28.3,30.4,26A22.8,22.8,0,0,1,36,15.4c3.2-3.1,5.6-4.2,6.2-6s-.3-1.6-.6-1.7-.4.5-.4.9.1,1.3-1.7,2.7-6.8,4.9-8.9,10.8-3.6,12.8-.5,21c4.6,9.4,12,11.3,12,11.3s.4.5-.4.5a29.5,29.5,0,0,1-13.6-3.5c-6.2-3.5-9.4-8.6-10.4-15.4a24.4,24.4,0,0,1,4.1-17.3,6.6,6.6,0,0,0,5.8,4.1c.7.1.9-.7.1-.8s-4-1.2-4.7-3.1a3.7,3.7,0,0,1-.1-1.4s2.4-3.6,8.2-6.5c4.1-2.2,3.3-3.1,3-3.4s-1.2-.1-1.4-.1l-.5-.2s-1.8-1.1-1-2.4,3.2-2,6.3-1.3a5.5,5.5,0,0,1,4,3s.2.7.8.7.5-.8.8-1.7.7-1.8,0-2.6-.9-.3-1,.2V4.7a9.1,9.1,0,0,0-1.7-1.6c-.7-.3-.6-.8.2-1.2s3.5-.9,4.5,1.3.7,6.5-1.9,9.3-6.9,5.8-8.3,13.4,1.4,11.9,3.9,14.7,4.5,1.8,4.5,1.8.3-.8-.4-.9S41,41,42,40.8a2.7,2.7,0,0,1,1.7,0s.8.3,1-.1,0-1-1.5-1-2,.3-2.1.5a.6.6,0,0,1-.8,0,16.8,16.8,0,0,1-2.2-2.8c-.8-1.2-.8-1.6-.3-2.4s1.6-1.5,2.4-1.2.6,1.5.6,1.5-.2,1.5.6,1.7.8-2.5.7-3.4A2.4,2.4,0,0,0,39,32.5a4.5,4.5,0,0,0-2.3,1.8c-.4-.7-1-4.7-.3-6.1s9.3-4.7,16.8-3.1,16.2,6,18.3,17.1c-.5,0-1.5-.3-1.6.2s.2.6,2.5,1.3,10.8,7.2,13.7,13.7S88.2,70.1,86.8,72.3Z"/><path class="cls-3" d="M46.2,60.9s-2.3-.2-2.8-3.2.3-5.1,1.8-5.4,1.8,3,1.8,3A12.9,12.9,0,0,0,46.2,60.9Z"/><path class="cls-3" d="M34.5,55.9a11.1,11.1,0,0,1-3.3,1.8,31.3,31.3,0,0,1-4.1.1c-2.6-.7-2.9-3-2.3-3.6a2.9,2.9,0,0,1,2.2-.8c.7,0,2.3.4,2.8.3a31.3,31.3,0,0,1,4.4,1.1C34.9,55.1,35,55.5,34.5,55.9Z"/><path class="cls-4" d="M42.2,58a3.8,3.8,0,0,0,1,1.7,5,5,0,0,0-2.7,1.2,3.6,3.6,0,0,0-1.7-.8A5,5,0,0,0,34,61.2a8.5,8.5,0,0,0-1.3-3.1A9,9,0,0,0,36,55.6h.3c.1,0,4.6.2,5.5.1h.1A4.9,4.9,0,0,0,42.2,58Z"/><path class="cls-5" d="M43.7,60.9l2.5.9c.6.3.4.5.4.5a11.7,11.7,0,0,0-2.7,4.4c-1.2,3.1-2.4,5.6-4,6.5s-2.8-.1-4.1-2.5-1-6.3-1-7.4-.5-1.7,1.4-2.3,3.7-.1,3.9.2-.2,1-.2,1a4.9,4.9,0,0,0-.8,1.3c-.3.7.3.8,1.2-.1S41.9,60.6,43.7,60.9Z"/><path class="cls-3" d="M56.5,44.9l-3.2.3a9.8,9.8,0,0,1,3.2-7.9c3.8-3.6,6.4-.7,6.8.6a7.9,7.9,0,0,1-.5,4.4C62.8,38.8,58.5,38.5,56.5,44.9Z"/><path class="cls-3" d="M60.2,44c-.5-.1-.4-1-.1-1.7s.9-1.1,1.2-1,.2,1,0,1.6S60.8,44.1,60.2,44Z"/><path class="cls-6" d="M89.5,62.8c-.7-10.7-13-18.2-16.2-19.8-.5-2.5-2.5-12.9-13.3-17.7a27.3,27.3,0,0,0-21.8,0,1.7,1.7,0,0,1-1.5.2A16.3,16.3,0,0,1,39.8,19c2.4-2.9,8.3-8.4,8.1-12.8S44.6,0,42.9,0a9.2,9.2,0,0,0-4.8,2C32.2.8,29,3.7,28.7,5.5s1.1,2,2,2.7-.3,1.3-.3,1.3a29,29,0,0,0-10.6,9.3c-4.5,6.6-4.6,15.7-4.6,15.7a9.4,9.4,0,0,0-5.8,1.8c-3.2,2.2-3,3.9-1.9,5.9S10,45.6,10,47.6s-1.1,2.3-2.8,4.6-1.8,3.5-2.4,4.4S1.5,60.5.6,64.7C-.7,70.9-.2,77,5.5,81.1a34.6,34.6,0,0,0,11.8,5.2,19.1,19.1,0,0,0,.9,10.1,37.1,37.1,0,0,0,6.4,11.1,50.1,50.1,0,0,0,1.6,5.8,32.7,32.7,0,0,0,5.4,10.2c.6.6.9,1.9.3,2.3s-1.4,1.1-.6,1.9,4.6,3.1,12.9,2.9,11.4-2.6,12-3.5-.3-1.7-1.4-3.4-1.1-5.1-1.1-5.1a22.8,22.8,0,0,0,5-.2c5-.5,6.5-.1,6.5-.1l1.3.3,2,.3a8.2,8.2,0,0,0,1.9,1.8c1,.4,6.2,0,9.3-6.1s3.2-12.4.4-15.6-5.8-1.1-5.8-1.1a8.3,8.3,0,0,1-2.5-1.6c4.4-7.2,2.4-14.9,2.5-15.5s-.2-.3,1.1-1.4,1.5-4,3-5.1,3,.7,5.7,1.6S90.3,73.5,89.5,62.8ZM8.5,41c-.1-2.2,2-4.9,6.4-5.3.1,3.8,2.7,11.9,11,17l-1.5.9a25.8,25.8,0,0,0-5.5-3.7c-3-1.6-7.4-.7-7.4-.7a6.2,6.2,0,0,0-.2-3.5C10.6,44.4,8.7,43.2,8.5,41ZM42.2,58a3.8,3.8,0,0,0,1,1.7,5,5,0,0,0-2.7,1.2,3.6,3.6,0,0,0-1.7-.8A5,5,0,0,0,34,61.2a8.5,8.5,0,0,0-1.3-3.1A9,9,0,0,0,36,55.6h.3c.1,0,4.6.2,5.5.1h.1A4.9,4.9,0,0,0,42.2,58Zm4,2.9s-2.3-.2-2.8-3.2.3-5.1,1.8-5.4,1.8,3,1.8,3A12.9,12.9,0,0,0,46.2,60.9Zm-2.5,0,2.5.9c.6.3.4.5.4.5a11.7,11.7,0,0,0-2.7,4.4c-1.2,3.1-2.4,5.6-4,6.5s-2.8-.1-4.1-2.5-1-6.3-1-7.4-.5-1.7,1.4-2.3,3.7-.1,3.9.2-.2,1-.2,1a4.9,4.9,0,0,0-.8,1.3c-.3.7.3.8,1.2-.1S41.9,60.6,43.7,60.9Zm-9.2-5a11.1,11.1,0,0,1-3.3,1.8,31.3,31.3,0,0,1-4.1.1c-2.6-.7-2.9-3-2.3-3.6a2.9,2.9,0,0,1,2.2-.8c.7,0,2.3.4,2.8.3a31.3,31.3,0,0,1,4.4,1.1C34.9,55.1,35,55.5,34.5,55.9ZM11.7,60.6s-1.8,1.8-2.6.7.7-2.9.7-2.9A23.5,23.5,0,0,0,11.7,60.6ZM6.6,55.5A9.2,9.2,0,0,1,8.7,53c.4-.3.5.3.5.3a9.9,9.9,0,0,0,.2,4.3s-1.8,1.5-2.7.9S6.1,56.4,6.6,55.5Zm31.8,72.9s-2.7-.3-3.3-.5-.6-1.3.2-2.1,2.9-1.1,3.1.5A4.7,4.7,0,0,1,38.4,128.4Zm5.9.4c-.3,0-2.7,0-4.5-.2a5.4,5.4,0,0,1-.1-.8,4.4,4.4,0,0,1,3.3-1.4c1.6.2,1.7,2,1.7,2S44.6,128.8,44.3,128.8Zm2.3-.1H46a2.7,2.7,0,0,1,1.9-2.2,2.3,2.3,0,0,1,1.3-.3c1.2,0,1.4,1.1,1.5,1.5s-.2.4-.5.5a24.3,24.3,0,0,1-3.5.5M76.6,98.2a3.6,3.6,0,0,1,3,2s.1.5-.4.4a2.3,2.3,0,0,0-1.1-.1,1.3,1.3,0,0,1-.2-.6,3.9,3.9,0,0,0-2.2-1.3C75.6,98.1,76.1,98.2,76.6,98.2Zm.4,1.5a1.9,1.9,0,0,1,.3,1s-2.3,1.5-2.6,2.3-.1.6-.9-.1a2.7,2.7,0,0,1-.1-3.6C74.8,98.2,76.7,99.3,77,99.7Zm-5.2,12.1c-.5.2-1.2-.3-1-1.4a1.2,1.2,0,0,1,1.2-.9A11.3,11.3,0,0,0,71.8,111.8Zm-.3-3.5c-.2-.2-2.2-.9-1.5-3s3.3-1.5,3.5-1.4.2.3.1.5-1.4,3.9-1.4,3.9A.8.8,0,0,1,71.5,108.3Zm15.3-36c-1.3,2.1-3.6.8-4.2.3s-3.5-1.5-4.9.1a21.9,21.9,0,0,0-3.1,5.2c-.3.9-1.2,1.1-1.3.6a21.1,21.1,0,0,0-5.9-6c-1.8-1.1-1.9.5-.9.9s5.5,3.4,5.4,11.7-3.2,12.5-8.1,15.2a1.3,1.3,0,0,1-.8.1.8.8,0,0,1,.2-.7s2.5-1,2.1-2.9-4.6-1.5-4.6-1.5a3.6,3.6,0,0,0,1.1-3.8c-.8-2.2-3.8-1-3.8-1s1-2.6-.8-3.7-3.6.3-4.1.9a3.4,3.4,0,0,0-.6,1.6s-.8-.1-.8.2.2.4,1.2.8,7.9,6,8.2,9.7c-.1.4-1.2-.1-1.2-.1a17.6,17.6,0,0,1-7.2-6.4c-3.2-4.9-2-6.5-1.2-7.1s2.2.2,3.2-.7,2.2-2.1,2.3-3.1-1.3-1-1.6-.6a3.9,3.9,0,0,1-2.9,2.2c-1.9.3-4.1,1.2-4.3,4.1s2.5,9.5,9,12.8,10.7.1,13.6-3.4a14.5,14.5,0,0,1,2.2.9c.4.2-.4.8-.6,1.1a4.1,4.1,0,0,0,.4,3.3c-3.7,0-3.9,2.8-3.6,3.9a3.5,3.5,0,0,0,1.8,1.9,2.8,2.8,0,0,0-1.1,2.1c0,1.3,1.8,1.6,1.8,1.6v.9s0,1.4.7,1.4.6-1.1.6-1.1a17.7,17.7,0,0,1,.9-7.2c1.4-3.4,3-5,4.9-5.2s1.8,3.3.9,7.9-4.1,8.6-7.6,9.8a2,2,0,0,1-2.6-1.4c0-.9-.4-1.1-.9-1s-.6.7-.6.7a6.3,6.3,0,0,1-2.2-.2c-.5-.3-.8-1.2-1.7-1.1s-6.5,1-10.8,1.1-8.5.1-11.8-.9-3.4-1.8-3.8-1.2,0,1,1.8,1.9A30,30,0,0,0,52,118.6a18.5,18.5,0,0,0,.8,5.3c.3,1.1.6,1.2,1,1.2a.9.9,0,0,1,.5,1.5c-.5.8-2.7,1.3-2.7,1.3s-.4-2.5-2.4-2.5a4.7,4.7,0,0,0-3.6,2.3c-.8-2.2-3.3-3.3-6-.6,0,0-.2.1-.2-.2a2.3,2.3,0,0,0-1.4-2.2,3,3,0,0,0-4,2.6l-.4-.3a2.6,2.6,0,0,1,1.1-1.9l.5-.4a12,12,0,0,0-.9-1.2c-.6-.8-4.7-7.1-6.1-12.4,2,1,3,.9,2.7.3s-3.7-1.3-7.4-8.7S20,91.5,20.3,84.3s2.7-9.1,2.3-10.6-1.3.3-2,1.1-1.8,4.8-3.1,9.9A20.7,20.7,0,0,1,5.3,77.1C2.1,72.5,1.6,70,3.1,62.9a20.8,20.8,0,0,1,2.4-5.3s-.3,2.2,2.6,1.6c-.7,2.8,1,3.5,2.5,2.9S12.4,61,12.4,61s.7-.4.3-1-3.3-2.1-2.5-6.6,8.3-2.3,11.3-.1,2.2,3.7,3.8,4.8a5.6,5.6,0,0,1-5.4,6.3c-1.9.1-4.5-1.8-4.5-1.8l-.4-.3s-.7.3-.1,1.3,4.1,3.8,8.3,1.7a9,9,0,0,0,.7,4.3c.5.9,1.4.6,1.2-.3a7.5,7.5,0,0,1-.2-4.9,7.2,7.2,0,0,0,2.2-5.9,11.6,11.6,0,0,0,4.1,0,39.4,39.4,0,0,1,1.6,4.1c.2,1.3.5,6,2,9.5a4.3,4.3,0,0,0,5.9,2.4c1-.5,3.1-4,4.3-6.5s2.3-4.5,3.3-5a2.9,2.9,0,0,0,2.5.6c.3-.3-.1-.8-.6-1.1s-1.4-1.1-1.5-3.7.6-3.8,1.5-4.7,1.1-1.4.3-1.4a5.5,5.5,0,0,0-2.6,1.4c-.5-1.6-1.3-2.6-2.5-2.6s-2.1,1.1-2.7,2c-2.2-.3-7.9-3.4-11.5-10.5S30,28.3,30.4,26A22.8,22.8,0,0,1,36,15.4c3.2-3.1,5.6-4.2,6.2-6s-.3-1.6-.6-1.7-.4.5-.4.9.1,1.3-1.7,2.7-6.8,4.9-8.9,10.8-3.6,12.8-.5,21c4.6,9.4,12,11.3,12,11.3s.4.5-.4.5a29.5,29.5,0,0,1-13.6-3.5c-6.2-3.5-9.4-8.6-10.4-15.4a24.4,24.4,0,0,1,4.1-17.3,6.6,6.6,0,0,0,5.8,4.1c.7.1.9-.7.1-.8s-4-1.2-4.7-3.1a3.7,3.7,0,0,1-.1-1.4s2.4-3.6,8.2-6.5c4.1-2.2,3.3-3.1,3-3.4s-1.2-.1-1.4-.1l-.5-.2s-1.8-1.1-1-2.4,3.2-2,6.3-1.3a5.5,5.5,0,0,1,4,3s.2.7.8.7.5-.8.8-1.7.7-1.8,0-2.6-.9-.3-1,.2V4.7a9.1,9.1,0,0,0-1.7-1.6c-.7-.3-.6-.8.2-1.2s3.5-.9,4.5,1.3.7,6.5-1.9,9.3-6.9,5.8-8.3,13.4,1.4,11.9,3.9,14.7,4.5,1.8,4.5,1.8.3-.8-.4-.9S41,41,42,40.8a2.7,2.7,0,0,1,1.7,0s.8.3,1-.1,0-1-1.5-1-2,.3-2.1.5a.6.6,0,0,1-.8,0,16.8,16.8,0,0,1-2.2-2.8c-.8-1.2-.8-1.6-.3-2.4s1.6-1.5,2.4-1.2.6,1.5.6,1.5-.2,1.5.6,1.7.8-2.5.7-3.4A2.4,2.4,0,0,0,39,32.5a4.5,4.5,0,0,0-2.3,1.8c-.4-.7-1-4.7-.3-6.1s9.3-4.7,16.8-3.1,16.2,6,18.3,17.1c-.5,0-1.5-.3-1.6.2s.2.6,2.5,1.3,10.8,7.2,13.7,13.7S88.2,70.1,86.8,72.3Zm-24.4,27s-.9-1.6-1.3-2.5.3-1,2.9-.5.3,2-.3,2.3ZM58,91.1c.5-.3,2.2-.6,2.9.3s.6,2.4-1,3.7l-2.4-2.8C57.1,91.9,57.4,91.4,58,91.1Zm-1.7.4a20.3,20.3,0,0,0-2.9-1.9c-.6-1.4,1-3.1,2.7-2.6a2,2,0,0,1,1.3,3A8.4,8.4,0,0,1,56.3,91.5Z"/><path class="cls-6" d="M42,76a4.5,4.5,0,0,1-3,1.3,6,6,0,0,1-3.3-2.2c-.5-.6-1.6-.1-.8,1.2a5.3,5.3,0,0,0,4.2,2.8c1.8,0,3.4-1.4,4-1.9s.9-1.4.7-1.7S43.1,75.1,42,76Z"/><path class="cls-6" d="M59.5,65.9c-.5,2-3.4,4-5,4.3s-2.9.2-2.9.8.8.7.8.7a10.8,10.8,0,0,0,7-2.3c1.6-1.3,2.8-4.4,2.1-5.1S60,63.9,59.5,65.9Z"/><path class="cls-6" d="M67.8,56.6s-.2-2.8-.8-2.7-.5.4-.6,1.4a5.1,5.1,0,0,1-2.1,4.1c-1.7,1.3-2.6.7-2.5,1.6a.8.8,0,0,0,1,.7,7.9,7.9,0,0,0,2.7-1.4l1.9,1.1a5.2,5.2,0,0,1,2.5,2.7s1.7,1.2.7-.9-4.5-3.5-4.5-3.5a14.3,14.3,0,0,0,1.5-2.3,5.4,5.4,0,0,1,2.5,1.3c.4.5,1.7.5.9-.3A16.6,16.6,0,0,0,67.8,56.6Z"/><path class="cls-6" d="M77.6,52.3c-3.1-2.7-5.6-3.2-6.1-2.5s-.1,1.6,1.1,2c4.3,1.6,8.3,5.9,9.6,8a7,7,0,0,1,1.2,4.1c0,.6,1.6,1.8,1.1-1.6S80.8,54.9,77.6,52.3Z"/><path class="cls-6" d="M62.4,49.7c-.1-.9-1.1-2.8-1.2-3.4,3.6-2.6,3.3-9.3,2-10.2s-3.9-2.5-7.3.6-3.7,9-3.7,9l-1.3.7c-.8.4-2,1.2-1.8,1.6s1-.1,1-.1a7.4,7.4,0,0,1,3.2-1.7c2.1-.4,5.2-.5,6.5.8s1.2,2.4,1.6,3.3S62.4,50.7,62.4,49.7Zm-5.9-4.8-3.2.3a9.8,9.8,0,0,1,3.2-7.9c3.8-3.6,6.4-.7,6.8.6a7.9,7.9,0,0,1-.5,4.4C62.8,38.8,58.5,38.5,56.5,44.9Zm3.7-.9c-.5-.1-.4-1-.1-1.7s.9-1.1,1.2-1,.2,1,0,1.6S60.8,44.1,60.2,44Z"/><path class="cls-6" d="M23.7,26.1a4.5,4.5,0,0,1-2.4-1.4c-.3-.3-.8-.2-.5.5a5.1,5.1,0,0,0,2.5,1.6c.6.1,1.5.3,1.5-.2S24.2,26.2,23.7,26.1Z"/><path class="cls-6" d="M42.8,27.1a3.2,3.2,0,0,0-3.1.3c-1,.7-1.5,1.3-1.2,1.4s.6-.2.7-.4a2.9,2.9,0,0,1,3.3-.5c.4.3.8.4.9.2S43.5,27.4,42.8,27.1Z"/><path class="cls-6" d="M60.6,33.2c3.9-.5,3.8,2.4,4,3s.8.4.8-.1a4.7,4.7,0,0,0-1.3-2.8c-.9-1-3.5-1.1-4-.6S60.4,33.2,60.6,33.2Z"/><path class="cls-7" d="M11.7,60.6s-1.8,1.8-2.6.7.7-2.9.7-2.9A23.5,23.5,0,0,0,11.7,60.6Z"/><path class="cls-7" d="M6.6,55.5A9.2,9.2,0,0,1,8.7,53c.4-.3.5.3.5.3a9.9,9.9,0,0,0,.2,4.3s-1.8,1.5-2.7.9S6.1,56.4,6.6,55.5Z"/><path class="cls-7" d="M38.4,128.4s-2.7-.3-3.3-.5-.6-1.3.2-2.1,2.9-1.1,3.1.5A4.7,4.7,0,0,1,38.4,128.4Z"/><path class="cls-7" d="M44.3,128.8c-.3,0-2.7,0-4.5-.2a5.4,5.4,0,0,1-.1-.8,4.4,4.4,0,0,1,3.3-1.4c1.6.2,1.7,2,1.7,2S44.6,128.8,44.3,128.8Z"/><path class="cls-7" d="M46.6,128.7H46a2.7,2.7,0,0,1,1.9-2.2,2.3,2.3,0,0,1,1.3-.3c1.2,0,1.4,1.1,1.5,1.5s-.2.4-.5.5a24.3,24.3,0,0,1-3.5.5"/><path class="cls-7" d="M77,99.7a1.9,1.9,0,0,1,.3,1s-2.3,1.5-2.6,2.3-.1.6-.9-.1a2.7,2.7,0,0,1-.1-3.6C74.8,98.2,76.7,99.3,77,99.7Z"/><path class="cls-7" d="M71.8,111.8c-.5.2-1.2-.3-1-1.4a1.2,1.2,0,0,1,1.2-.9A11.3,11.3,0,0,0,71.8,111.8Z"/><path class="cls-7" d="M71.5,108.3c-.2-.2-2.2-.9-1.5-3s3.3-1.5,3.5-1.4.2.3.1.5-1.4,3.9-1.4,3.9A.8.8,0,0,1,71.5,108.3Z"/><path class="cls-7" d="M62.4,99.3s-.9-1.6-1.3-2.5.3-1,2.9-.5.3,2-.3,2.3Z"/><path class="cls-7" d="M58,91.1c.5-.3,2.2-.6,2.9.3s.6,2.4-1,3.7l-2.4-2.8C57.1,91.9,57.4,91.4,58,91.1Z"/><path class="cls-7" d="M56.3,91.5a20.3,20.3,0,0,0-2.9-1.9c-.6-1.4,1-3.1,2.7-2.6a2,2,0,0,1,1.3,3A8.4,8.4,0,0,1,56.3,91.5Z"/><path class="cls-8" d="M156.4,121.5A47.8,47.8,0,0,1,139.6,108l6-3.7h-23l4.4,4c-8.7,6.9-19.6,11.6-24.1,13.4l-3-7.5c13.3-4.8,17.7-7.9,20.4-9.9H102.9l2.1-7.8h7.4l9.1-34.3c8.4.1,16.9,0,25.5-.5,14.2-.9,21.3-2.7,24.2-3.4l1.4,8.3a259.2,259.2,0,0,1-44.4,3.1l-1.5,5.5h43.8l-2.2,7.9h-8.9l-3.6,13.4h11.8l-2.1,7.8H148.9a44.5,44.5,0,0,0,14.7,9.8ZM151,83.1H124.6L121,96.5h26.4Z"/><path class="cls-8" d="M241.4,70.6H191.1l-6,22.3c-4.6,17.4-11.5,25.6-14.4,29l-5.2-6.2a58.5,58.5,0,0,0,11.6-22.8L185,63.3h23.9l1.2-4.5h8.6l-1.2,4.5h25.9Zm-1.9,3.7-1.7,6.4H217.4l-.8,3.2H234l-5.8,21.4H210.8l-.9,3.4H231l-1.9,6.9h-21l-1.8,6.5h-7.8l1.8-6.5H178.9l1.9-6.9h21.3l.9-3.4H186l5.8-21.4h17l.8-3.2H189.7l1.7-6.4h19.9l.7-2.6h7.8l-.7,2.6ZM196,96.7l-1,3.7h9.4l1-3.7Zm2.1-7.9-1,3.6h9.4l1-3.6Zm15,7.9-1,3.7h9.8l.9-3.7Zm2.1-7.9-.9,3.6H224l1-3.6Z"/><path class="cls-8" d="M283.7,61.9H264.2s-14.6,35.6-15,36.8a5.9,5.9,0,0,0,.7,5.9,6,6,0,0,0,5.2,2.4h28.2l-1.3,3.1H256.7l-15.9,12.5h25.6l15.4-12.1-5,12.1h21.9l5.1-12.2,7.8,12.2H334l-8.1-12.5h-22l1.3-3.1h32.1l3.8-9.3h-72Z"/><path class="cls-8" d="M344.6,60.4a6.1,6.1,0,0,0-5-2.7H292.9l-15.1,37h55.6c5.5-13.6,11.3-27.6,11.7-28.7A6,6,0,0,0,344.6,60.4ZM305.7,74.1h16.6l-1.5,3.6H304.2Zm20.4-9.2-1.4,3.5H308.1l1.4-3.5ZM301.9,83.5h16.6L317,87H300.4Z"/><path class="cls-8" d="M534.6,75.2l3.6-8.9h-8.7l3.6-8.6H513.6l-3.5,8.6H484.5l3.5-8.6H468.5L465,66.3h-8.5l-3.6,8.9h8.5l-5.7,14H444.3L440.7,98h88.5l3.7-8.8H520.2l5.7-14Zm-33.9,14H475.1l5.8-14h25.5Z"/><path class="cls-8" d="M487.5,100.8c1.7,5.5,8.3,19,32,21.8l6.2-15.4c-3.8-.4-11.7-1.8-16.8-6.4Z"/><path class="cls-8" d="M436.7,108l-6.3,15.3c34.3.4,48.1-18,51-22.5H458.3C451.9,106.4,441.4,107.7,436.7,108Z"/><polygon class="cls-8" points="570.4 60.4 550.9 60.4 547.2 69.5 566.7 69.5 570.4 60.4"/><polygon class="cls-8" points="564.3 75.4 544.8 75.4 541 84.6 560.5 84.6 564.3 75.4"/><path class="cls-8" d="M561.5,100.7,551.6,91c-4.2,6.5-11.2,11.9-19.4,15.1l-6.7,16.5a67.4,67.4,0,0,0,9.8-2.6C546.2,116,555.3,109.4,561.5,100.7Z"/><path class="cls-8" d="M614,78a112.7,112.7,0,0,0,12.5-8.5h6.2l3.7-9.1H613.9l1.5-3.8H595.9l-1.5,3.8H573.8l-3.7,9.1h6.5a35.3,35.3,0,0,0,6.7,8.8c-4.6.8-12.7,1.1-17.3,1.3l-6.3,15.3a59.3,59.3,0,0,0,8.4-.6c-1.6,6.8-6.5,16.4-19.9,28.3h23.2s2.6-2.2,5.9-7.7h15.8l-3.1,7.7h19.5l11.8-28.9,6.3.4,5.8-14.3C630.4,79.8,620.9,79.8,614,78Zm-6.5-8.5L596.7,76l-5.6-6.5ZM582,105.6a32.4,32.4,0,0,0,1.3-3.3h15l-1.3,3.3ZM602.2,93H586.3c.2-.9.5-1.8.7-2.8,3.1-1,6.1-2,8.9-3.2a45.7,45.7,0,0,0,7.4,3.1Z"/><path class="cls-8" d="M441.6,60.4a5.7,5.7,0,0,0-4.9-2.7H363.4l-23.3,56.6a6,6,0,0,0,.6,5.6,6.2,6.2,0,0,0,4.9,2.7h30.3L386,108.4H362.1l4.2-10.3h21.3c1.9,4.7,9.6,18.7,36.9,24.7l6.3-15.2c-3.9-.2-15.1-1.1-24.6-9.5h23.9l3.6-8.8H402a20.8,20.8,0,0,1-1.2-7.4h34.9c3-7.4,5.8-14.3,6.5-15.9A5.7,5.7,0,0,0,441.6,60.4Zm-56,28.9H369.9l3-7.4h12.4A38,38,0,0,0,385.6,89.3Zm-9.1-16.2,2.7-6.6h43.3l-2.7,6.6Z"/><path class="cls-8" d="M268.3,29.5a10.2,10.2,0,0,0,3.7-1c.7-.4,1-.6,1.4-.6s1.7.7,1.6,1.3-.6.7-1.1.8a8.9,8.9,0,0,0-3.9,2.9c-1.9,2.3-3.7,4.9-4.2,7.6s.9,4.6,3.1,4.6a8.9,8.9,0,0,0,7-4.2,23.2,23.2,0,0,0,2.9-7.3,8.8,8.8,0,0,0,.1-3.2,4.7,4.7,0,0,1-.1-2,1.2,1.2,0,0,1,1.2-1.1c.9,0,1,.5,1.1,2s.3,3.6,3.3,6.5c.6.6,1,1,.8,1.7s-.2,1.2-1.1,1.2-2.6-1.9-3.7-5.2c0-.1-.4-1.1-.4-1.1a.2.2,0,0,0-.2.2,6.8,6.8,0,0,1-.2,1.4c-.1.8-.2,1.5-.3,2a20.5,20.5,0,0,1-2.3,6.7,9.2,9.2,0,0,1-7.6,4.1c-4.1,0-6.2-2.9-5.5-6.4s2.4-5.2,4.9-7.8l1.9-1.8a.4.4,0,0,0,.1-.3c.1-.1-.1-.2-.2-.2a9.8,9.8,0,0,0-2.3.9c-.5.2-.6.3-.9.3a2,2,0,0,1-1.7-2.4,4.1,4.1,0,0,1,.3-.8c1.1,1,1.5,1.2,2.3,1.2"/><path class="cls-8" d="M302.5,34.4l1.2-.4c.5,0,1.5.6,1.4,1s-3.9,1.4-4.1,1.4a4,4,0,0,1-1.7-.3,17.1,17.1,0,0,0-.5,1.8,23.2,23.2,0,0,0-.4,4.4c2.1.3,5.5,1.5,5.2,3.1a1.2,1.2,0,0,1-1,.9c-.5,0-.7-.1-1.8-1a8,8,0,0,0-2.5-1.3c-.7,2.9-3.7,2.9-4.5,2.9s-3.8-.6-3.5-2.3.5-2.8,6.5-2.5a22.8,22.8,0,0,1,.5-4.4c.1-.5.9-4.1.9-4.3s.2-1.4-1.7-1.7a3.1,3.1,0,0,1,2.1-.7c1,0,2.3.8,2.2,1.4s-.5,1-.7,1.5-.4,1-.5,1.2a11.1,11.1,0,0,0,2.9-.7m-7.9,9c-2.4,0-3.2.6-3.3,1.1s1.2.9,2.1.9c2.7,0,3-1.1,3.2-1.9h-2"/><path class="cls-8" d="M315.2,49v-.2a16.8,16.8,0,0,0,8.8-11.1c.3-1.5.5-4.5-1.8-4.5s-4.5,2.5-5.4,3.4-1.4,1.4-2,1.4a2.4,2.4,0,0,1-2.2-2.9,3.3,3.3,0,0,1,.5-1.2c.1.3.5,1.2,1.3,1.2a6.3,6.3,0,0,0,2.5-.9c3-1.5,4.2-1.8,5.8-1.8,4.2,0,4.2,3.7,3.8,5.6-1,5.2-6.2,9.8-11.2,11M325,29.8l-2.2-.2a14.3,14.3,0,0,0-3.1.6h-.1c1.6-1.2,1.8-1.3,1.9-1.6s-.1-.2-.4-.3-2.4-1-2.9-2.2a2.1,2.1,0,0,1-.3-1.4c1.1,1.2,2.2,1.4,4.5,2s4.1.8,3.8,2.4a1.1,1.1,0,0,1-1.2.8"/><path class="cls-8" d="M351.1,44.8c-1.5.7-6,.7-7.5.7s-5.4-.1-7.2-1.1a4.1,4.1,0,0,1-2-3.9c.2-.7.9-2.6,2.4-3.2a7.5,7.5,0,0,0-.7,2c-.3,1.7.5,4.2,5.8,4.2a28.1,28.1,0,0,0,7.1-.8h.6c.9,0,2.4.5,2.2,1.3a1.4,1.4,0,0,1-.7.9M350,32h-1.8c-2,0-3.3.5-6.7,1.7v-.2l3.4-2.3a10.7,10.7,0,0,0-2.3-.4c-.3-.1-3.5-.8-2.9-3.4,1.1,1.4,2.6,1.9,6.4,1.9h2.8c.9,0,2.9.6,2.7,1.8a1.4,1.4,0,0,1-1.5,1m4.5-1.3c-.5,0-.6-.2-1.2-1.1a4.9,4.9,0,0,0-2.2-2.3c1.7.1,4.9.7,4.6,2.4a1.2,1.2,0,0,1-1.2,1m3-1.2c-.4,0-.5-.1-1.2-1.3a4.8,4.8,0,0,0-2.1-1.9h.8c2,0,3.9,1,3.7,2.3a1.2,1.2,0,0,1-1.2.9"/><path class="cls-8" d="M372.2,45.7c2.1-.7,9.1-3.1,10.3-9.3.7-3.6-1.1-6.8-6.5-6.8h-1.7c1.6.7,1.9,1.8,1.9,2.2s-2.9,4.5-4.9,7.1c-3.8,4.9-4.8,5.1-5.5,5.1s-.8-.4-1.5-1.5a4.4,4.4,0,0,0-.9-1.1,3.2,3.2,0,0,1-.6-2.9c1-5.4,7-9.9,13.6-9.9s9.6,3,8.6,8-6.6,8.6-12.9,9.1Zm-7.3-7.5c-.3,1.6.1,3.7,1.1,3.7s2.3-1.8,3-2.8,4.5-6.1,4.8-7.7a2.1,2.1,0,0,0-.6-1.6c-3.9.8-7.7,5.1-8.3,8.4"/><path class="cls-8" d="M412.8,43.6a1.6,1.6,0,0,1-1.3-.6,17.2,17.2,0,0,0-2.8-2.3,18.2,18.2,0,0,1-8.4,6.7h0a30.8,30.8,0,0,0,6.8-7.6,14.8,14.8,0,0,0-6.1-1.8c-1,1.4-5.1,7.1-7.6,7.1s-2-2.2-1.8-3.4c.6-3.2,5.3-4.6,8.3-4.8a50.9,50.9,0,0,0,4.3-7.5c.1-.1-.1-.3-.3-.3s-3.2,1.8-3.7,1.8-1.6-1.2-1.4-2.4a1.9,1.9,0,0,1,.9-1.3,1.4,1.4,0,0,0,1.3,1.3,15.1,15.1,0,0,0,3.8-1l1.3-.4c.6,0,1.7,1,1.6,1.7s-.2.5-1,1.2-4.4,6.2-4.8,6.8A20.7,20.7,0,0,1,408,38a16.9,16.9,0,0,0,1.1-2.6,3.5,3.5,0,0,0-.6-2.2,2.2,2.2,0,0,1,1-.2c.9,0,2.3,1.3,2.1,2.3a18.5,18.5,0,0,1-1.7,3.5c1.8.8,4.4,2.2,4.1,3.7a1.3,1.3,0,0,1-1.2,1.1m-14.1-5.7c-.6,0-5.2.7-5.7,3.2a1.5,1.5,0,0,0,1.1,2c1,0,4.3-4.1,5-5.2h-.4"/><path class="cls-8" d="M436.6,30.8a56.3,56.3,0,0,1-5.9,1.4c-4.7,7-5.7,8.4-7.1,9.9a1.9,1.9,0,0,1-.9.4.9.9,0,0,1-.8-1.2,3.7,3.7,0,0,1,.8-1.4,48.7,48.7,0,0,0,6-7.2l-2.3.2c-2.4,0-2.7-1.2-2.6-1.8a1.6,1.6,0,0,1,.4-.7c.3.7,1,1.1,2.6,1.1a11.7,11.7,0,0,0,2.9-.4,11.2,11.2,0,0,0,1.5-3.1c.2-.9-.9-1.2-1.3-1.3a2.7,2.7,0,0,1,1.7-.6c1,0,2.6,1,2.4,1.8s-.5.7-.6.9L432,30.5l2.1-.7,1.8-.6c.4,0,1.5.4,1.4,1s-.4.5-.7.6m5.6,6.2a4.1,4.1,0,0,1-1-.2,3.8,3.8,0,0,0-2.4-.9,3.2,3.2,0,0,0-3.4,3,12.7,12.7,0,0,0-.1,3.3c2.5.4,4.9,1.6,4.6,3s-.4,1.2-1.1,1.2-1.5-.8-2-1.2a8.2,8.2,0,0,0-1.7-1,3.8,3.8,0,0,1-1.5,2.5,7.2,7.2,0,0,1-3.6,1c-2.2,0-4.1-1.2-3.8-2.9s3-2.9,5.9-2.9h1.1a10.9,10.9,0,0,1,.3-2.4c.6-3,4-3.9,5.2-4.3h.7c.1-.1.2-.2.2-.3s-1.2-1.4-3.4-1.9a7.6,7.6,0,0,1,2.1-.3c3.4,0,5.3,2.1,5,3.5a1,1,0,0,1-1.1.9m-11.4,6.2c-.5,0-3.3,0-3.6,1.5s1.6,1.5,2.6,1.5a2.9,2.9,0,0,0,3.2-2.7,4.8,4.8,0,0,0-2.2-.3"/><path class="cls-8" d="M465.1,41.3c-.3,0-.4-.1-1.3-.7A17.1,17.1,0,0,0,457,39c-2.7,0-4.9,1.2-5.3,2.9s2.6,3.1,6.8,3.1c2,0,2.2,0,2.7.2s.8.5.6,1.2-1.3,1-1.8,1-10.2-.2-9.3-5.1a5,5,0,0,1,3.1-3.5,11.4,11.4,0,0,1,4.8-.9,24.9,24.9,0,0,1,5,.5h.3s.1,0,.1-.2-2.4-4-3.7-5.4a20.7,20.7,0,0,1-6.2,1.2c-1.6,0-3.3-.7-3.2-2.7a5,5,0,0,0,3.3,1.1,15.2,15.2,0,0,0,4.8-.9,16.5,16.5,0,0,0-2.5-1.8c-.9-.6-.8-1.2-.7-1.4a2.6,2.6,0,0,1,2.2-2.1c.3,0,.5.2,2.2,1.2h-1.4a.5.5,0,0,0-.5.5c-.1.6,1.6,2.3,2.3,3s3.7-1.3,3.8-1.9-.4-.5-.7-.7h1.1l1.5-.3c.5,0,1.2.3,1.1,1s-3.9,2.6-5.6,3.2l3,3.3c1.1,1.3,2.2,2.6,2,3.6s-1.2,2-1.7,2"/><path class="cls-8" d="M492.5,30.8a65.1,65.1,0,0,1-6.4,1.3,31.8,31.8,0,0,0-.8,3.3l3.8-1c.6,0,1.8.3,1.6,1.1s-.5.5-.7.6a45.3,45.3,0,0,1-5,1,16,16,0,0,0-.2,5.3,8.4,8.4,0,0,1,4.5,1.9,1.3,1.3,0,0,1,.5,1.4c-.1.5-.5,1.1-1.1,1.1s-.7-.1-1.4-.7a11.7,11.7,0,0,0-2.8-1.7c-.3.9-1.2,3.2-5.5,3.2-2.8,0-4.6-1.4-4.3-2.8s4.8-2.8,6.4-2.8h1.6a18.8,18.8,0,0,1,.5-4.7l-3.3.2c-2.1,0-3.3-.3-3.1-1.3s1.5-1.6,2.5-1.6a2.2,2.2,0,0,0-.7,1c0,.2.1.4.8.4l4.1-.3a25.7,25.7,0,0,1,.7-3.4l-3.9.3c-3.3,0-3.9-.6-4.4-2.3a7.7,7.7,0,0,0,3.8.8,36.1,36.1,0,0,0,4.9-.5c0-.3.4-1.8.4-2s.2-1.5-1.7-2a2.4,2.4,0,0,1,1.9-.8c1,0,3,.6,2.8,1.8a4,4,0,0,1-.7,1.3l-.7,1.3,2.4-.6,2.5-.7c.8,0,1.8.5,1.7,1.1a.8.8,0,0,1-.7.7M479.4,43.4c-1.4,0-3.6.6-3.8,1.5s.4,1.1,2.6,1.1a8,8,0,0,0,3-.6,2.3,2.3,0,0,0,1.2-1.7,14.5,14.5,0,0,0-3-.3"/><path class="cls-8" d="M512.7,46.2a38.1,38.1,0,0,1-5.9.5c-1,0-5.2,0-7-1.4a3.2,3.2,0,0,1-1.1-3c.3-1.6,1.9-4,6.5-6.4a4.5,4.5,0,0,1-.6-3.1,21.9,21.9,0,0,0,.7-4.3c-.1-1.4-.6-1.5-2.1-2a4.3,4.3,0,0,1,2-.6,5.3,5.3,0,0,1,3.1,1.2.6.6,0,0,1,.2.6c0,.1-.1.3-.4.7a10.4,10.4,0,0,0-1.3,3.8,7.1,7.1,0,0,0-.2,3,52.6,52.6,0,0,1,5.3-2.1c.5-.2.7-.3.7-.6s0-.6-.1-.9c2.8.6,2.6,2.2,2.5,2.4s-.8,1-2.1,1.1c-4.3.4-12.5,3.5-13.2,6.9a2,2,0,0,0,.7,1.8c.8.9,3.1.9,4.1.9a47.6,47.6,0,0,0,6.4-.6l1.2-.2c.2,0,2,.1,1.7,1.3s-.8.9-1.1,1"/><path class="cls-8" d="M531.3,43a29.9,29.9,0,0,1-10.8,5.1v-.2a33.8,33.8,0,0,0,7.5-5,9.2,9.2,0,0,0,2.3-2.5l2.1,1.8c.2.1.2.2.2.3s-.8.4-1.3.5m14.9-3.1H525.8a17,17,0,0,0-3,.2l-.2-.9h6.7l1.4-6.9h-5.1l-.3-.9h5.5c.9-4.6.7-5.5.6-6.2l3.3.7a.4.4,0,0,1,.4.4c-.1.3-.3.4-1.2.8s-.7,3.7-.8,4.3h5.2c.2-1,.5-2.6.7-3.9a5.8,5.8,0,0,0-.1-2.4l3.4.8c.2.1.4.2.4.4s-.9.6-1.2.7-.7,3.8-.8,4.4h1.4l1.8-1.5.5-.3.5.2,1.7,1.6a.5.5,0,0,1,.2.4.5.5,0,0,1-.5.3h-5.8l-1.3,6.9H542l1.8-1.6c.3-.3.4-.3.5-.3a.9.9,0,0,1,.5.3l1.7,1.6a.5.5,0,0,1,.2.4c-.1.2-.3.2-.5.2m-8-7.5h-5.3c-.1.7-.2.9-.5,2.4l-.8,4.5h5.2Zm3,15.9c-.9,0-1.1-.5-1.6-1.7a11.4,11.4,0,0,0-4.3-5.4V41a13.3,13.3,0,0,1,5.6,2.7,3.4,3.4,0,0,1,1.7,3.4,1.5,1.5,0,0,1-1.5,1.2"/><path class="cls-8" d="M558.6,40.6a19.6,19.6,0,0,0-1.1,3.3,11.1,11.1,0,0,0-.2,1.7c-.2.8-.4,1.3-1.1,1.3s-2.6-3.1-1.7-7.5a51,51,0,0,1,2.6-7.9,5.8,5.8,0,0,0,.5-1.7,2.6,2.6,0,0,0-.6-2.4l.8-.2c1,0,2.7,1.6,2.5,2.5s-.5,1-.6,1.3c-1.6,2.4-3,4.4-3.5,7.4s-.3,3.6.2,3.6.4-.3.5-.5a52.4,52.4,0,0,1,3.5-5.4h.2l-2,4.5m12.3,4.1c-6.6,0-9-1.1-8.4-4.2a3.1,3.1,0,0,1,.6-1.4c.2,1.8.3,3.5,5.3,3.5l3.7-.2c1.9,0,2.1.8,2,1.2s-1.7,1.1-3.2,1.1m2.5-13.2a16,16,0,0,0-5.7,1.8l-.2-.2a18.2,18.2,0,0,0,2.8-2.2c.1-.4-.8-.4-1-.4a17.4,17.4,0,0,0-5,1.2c1.3-2.1,5.3-2.8,7.9-2.8s3.4.3,3.1,1.5-.5.9-1.9,1.1"/><path class="cls-8" d="M581.3,44.5c3-2.5,5.9-5.5,7.4-8.8l2.2,1.2c.3.1.5.3.4.6s-.1.3-1,.5a22.1,22.1,0,0,1-8.9,6.6Zm.4,3.5a28.1,28.1,0,0,0,11.7-4.8,15.1,15.1,0,0,0,4.3-3.7l1.6,1.7c.2.3.3.4.2.6s-.4.3-1,.4a27.1,27.1,0,0,1-16.9,6ZM586,34.7a16.5,16.5,0,0,0-2.9.2l-.3-1,3.8.2h1.5c.8-4.2,1-5.1.8-6.4l2.8.8c.3.1.6.1.5.5s-.2.3-1,.7l-.8,4.4h3.4c1-5.2,1.4-7.3,1.2-8.8l2.6.7c.4.1.6.1.5.4s-.3.5-.9.8l-.4,2.3h3.4l1.5-1.7a.5.5,0,0,1,.4-.3.9.9,0,0,1,.5.3l1.6,1.6a.8.8,0,0,1,.2.4.5.5,0,0,1-.5.3h-7.2l-.8,4h7l1.8-1.7c.1-.1.2-.3.4-.3s.3.1.5.3L607,34c.1.1.3.3.2.4s-.2.3-.4.3H594.6l1.1.2c.2,0,.6.1.6.3s-.1.3-.7.7-.7,4-.8,4.7-.4,2.2-3.7,2.8a3,3,0,0,0-1.8-2.6v-.2h3.2c.1-.1.1-.4.2-1.2l.9-4.7Zm11.2,1.5c5,.5,7.5,3.6,7.2,5.2a1.7,1.7,0,0,1-1.6,1.3c-.8,0-1.1-.6-1.6-1.6a10.2,10.2,0,0,0-4.1-4.7Z"/><path class="cls-8" d="M635,38.6l-1-.4a6.3,6.3,0,0,0-2.7-.5h0c2-1.1,2-1.1,2.1-1.5a1.9,1.9,0,0,0-1.7-1.7c-1.1,0-1.3,1.1-1.4,1.5a13.4,13.4,0,0,0,.5,6,11.9,11.9,0,0,1,.3,1.7c-.7,3.3-8.1,3.5-9.1,3.5s-4.7-.1-5.7-1.6a2.4,2.4,0,0,1-.2-1.8,6,6,0,0,1,1-2.5c-2.1-.3-2.5-2.5-2.3-3.6a5,5,0,0,1,4.5-3.6h.4l.5-1.4-2,.2c-1.4,0-3.3-.5-2.7-2.5a3.6,3.6,0,0,0,2.8.9h2.4c.7-2.1.8-2.6.9-2.9s0-.9-1.6-1.3a2,2,0,0,1,1.6-1c.9,0,3.2.6,3,1.6s-.2.5-.6,1a5.5,5.5,0,0,0-1.4,2.2l1.9-.5a10.5,10.5,0,0,1,2.3-.8c.5,0,1.4.3,1.3,1s-.9.9-1.5,1-3.8.8-4.7,1a24.5,24.5,0,0,0-1,2.3,2.2,2.2,0,0,1,.5,1.8c-.2.9-.8,1.8-2.1,3.5a15.3,15.3,0,0,0-2,3.3c-.4,1.6,2.9,1.6,3.9,1.6,6.8,0,7.3-1.8,7.5-3.1s.5-4.2.6-4.9c.5-2.6,1.5-3.4,2.9-3.4s4.4,1.5,4,3.5-1,1.4-1.2,1.4m-16.6-3.3c-.4.1-2.1.9-2.3,2.1s.3,2.2,1.1,2.2.6-.2.9-.6a13.4,13.4,0,0,0,1-2.7c.1-.4-.1-1.1-.7-1"/></g></g></g></svg>