<svg xmlns="http://www.w3.org/2000/svg" viewBox="0 0 386.4 46.9"><defs><style>.cls-1{fill:#0062b1;}</style></defs><g id="レイヤー_2" data-name="レイヤー 2"><g id="h_logo-all"><path class="cls-1" d="M302.8,8a37.3,37.3,0,0,1-9.2,11.2,41.4,41.4,0,0,1-17,8.6,13.4,13.4,0,0,0-1.5-2.9,43,43,0,0,0,15.2-7,31.7,31.7,0,0,0,8.2-9.1h-9.8a42.7,42.7,0,0,1-10.6,7.6,8.4,8.4,0,0,0-1.5-2.8,34.8,34.8,0,0,0,13.9-12l3.4.8-2.3,3.1H301a14.6,14.6,0,0,0-.5-3.8l2.3-.7a18.7,18.7,0,0,1,.7,4.9l-1.7.6Zm3.7-8a15.7,15.7,0,0,1,.9,4.7l-2.4.8a18.1,18.1,0,0,0-.7-4.9Z"/><path class="cls-1" d="M315.5,3l-1.7,4.6a49.2,49.2,0,0,1-5.3,11.3,29.9,29.9,0,0,1-8.5,8.9,10.6,10.6,0,0,0-1.8-2.7,28.4,28.4,0,0,0,7.3-7.4,45.4,45.4,0,0,0,4.7-10.1l1.7-4.8Zm4.5-.7h3.7l-7.4,20.2c4.4-1.6,8.3-5.2,11.5-10.1a27.6,27.6,0,0,0,2.1,2.5c-4.8,6.8-11.5,11.5-19.1,12.8Z"/><polygon class="cls-1" points="355.7 16.7 333.6 16.7 334.9 13.1 357 13.1 355.7 16.7"/><path class="cls-1" d="M379.2,4.4a4.4,4.4,0,0,1,.2-1A5.3,5.3,0,0,1,384,0c1.9,0,2.9,1.5,2.2,3.4a5.3,5.3,0,0,1-4.6,3.4h-.7a34.3,34.3,0,0,1-9.7,13.1,39.4,39.4,0,0,1-16.1,8,14.6,14.6,0,0,0-1-3.4,35.2,35.2,0,0,0,14.2-6.3,25.9,25.9,0,0,0,8.2-10.2H357.7l1.2-3.5Zm2.9.8a2.9,2.9,0,0,0,2.5-1.8,1.3,1.3,0,0,0-1.2-1.8A2.8,2.8,0,0,0,381,3.4c-.4,1,.1,1.8,1.1,1.8"/><path class="cls-1" d="M134.8,3.2H127l-6,14.7a2.5,2.5,0,0,0,.3,2.3,2.3,2.3,0,0,0,2.1,1h11.2l-.5,1.2H124l-6.3,5h10.2l6.1-4.8-1.9,4.8h8.7l2-4.8,3.1,4.8h9l-3.3-5h-8.7l.5-1.2h12.8l1.5-3.7H129Z"/><path class="cls-1" d="M159.1,2.6a2.4,2.4,0,0,0-2-1.1H138.5l-6.1,14.8h22.2l4.7-11.5a2.5,2.5,0,0,0-.2-2.2M143.6,8.1h6.6l-.6,1.4H143Zm8.1-3.7-.5,1.4h-6.7l.6-1.4ZM142,11.8h6.7l-.6,1.4h-6.6Z"/><path class="cls-1" d="M234.9,8.5,236.4,5h-3.5l1.4-3.5h-7.7L225.2,5H214.9l1.5-3.5h-7.8L207.2,5h-3.4l-1.5,3.5h3.4l-2.3,5.6h-4.5l-1.4,3.5h35.3l1.5-3.5h-5.1l2.3-5.6Zm-13.5,5.6H211.2l2.3-5.6h10.2Z"/><path class="cls-1" d="M216.2,18.7c.6,2.2,3.2,7.6,12.7,8.7l2.5-6.1c-1.5-.2-4.7-.7-6.7-2.6Z"/><path class="cls-1" d="M195.9,21.6l-2.6,6.1c13.8.2,19.2-7.2,20.4-9h-9.2c-2.6,2.3-6.8,2.8-8.6,2.9"/><path class="cls-1" d="M197.8,2.6a2.2,2.2,0,0,0-1.9-1.1H166.6l-5.5,13.4h0c-1.6,3.9-3.5,8.7-3.8,9.2a2.8,2.8,0,0,0,.3,2.3,2.3,2.3,0,0,0,1.9,1h12.1l4-5.6h-9.5l1.7-4.2h8.5c.7,1.9,3.8,7.5,14.7,9.9l2.5-6.1a15.2,15.2,0,0,1-9.8-3.8h9.5l1.5-3.5H182a10.7,10.7,0,0,1-.5-2.9h14l2.6-6.4a2.5,2.5,0,0,0-.3-2.2M175.5,14.1h-6.3l1.2-2.9h5a12.2,12.2,0,0,0,.1,2.9m-3.6-6.4,1-2.6h17.3l-1.1,2.6Z"/><polygon class="cls-1" points="249.3 2.6 241.5 2.6 240 6.2 247.8 6.2 249.3 2.6"/><polygon class="cls-1" points="246.8 8.6 239 8.6 237.5 12.2 245.3 12.2 246.8 8.6"/><path class="cls-1" d="M245.7,18.7l-4-3.9a16.3,16.3,0,0,1-7.7,6.1l-2.7,6.5a27.9,27.9,0,0,0,3.9-1,22.4,22.4,0,0,0,10.5-7.7"/><path class="cls-1" d="M266.7,9.6a39.9,39.9,0,0,0,4.9-3.4h2.5l1.5-3.6h-9l.6-1.5h-7.8l-.6,1.5h-8.2l-1.5,3.6h2.6a16.8,16.8,0,0,0,2.7,3.5c-1.8.3-5.1.5-6.9.6L245,16.4l3.3-.3c-.6,2.8-2.6,6.6-7.9,11.3h9.2a10.5,10.5,0,0,0,2.4-3h6.3l-1.2,3h7.7l4.8-11.5h2.5l2.3-5.7a29.6,29.6,0,0,1-7.7-.7M264,6.2l-4.3,2.6-2.2-2.6ZM253.9,20.6c.2-.4.3-.8.5-1.3h6l-.6,1.3Zm8-5h-6.3l.3-1.1,3.5-1.3a20.8,20.8,0,0,0,3,1.3Z"/><path class="cls-1" d="M121.2,7h-7.7l-.8,2.1h-7.2l-1.4,3.6h7.2l-4.4,10.7h-5.1l1.4,4.1h5.4c4.3-.1,5-2.1,5.7-3.7h0l4.6-11.1h1l1.5-3.6h-1Z"/><path class="cls-1" d="M111.6,2.2l.5-1.3h-8.3l-.6,1.3H88.7s-5.4,13.7-7,17.2a35.6,35.6,0,0,1-2.9,5.2l6.4,3.1s1.7-3,3.1-6.1,2.2-5,2.6-6.1l.7,1.5,1.8-.9L88.7,27.5H96l6.2-15.6a14.4,14.4,0,0,0,3.1-4.3l-4.8-1.5h22l1.6-3.9ZM91.8,13.3l3-7.2h4.5a22.6,22.6,0,0,1-7.5,7.2"/><path class="cls-1" d="M107.2,14.4l-5.5,1.1a26.9,26.9,0,0,1,.1,5.6l5.4-1.1a34.5,34.5,0,0,0,0-5.6"/><path class="cls-1" d="M72.8,6.3h9.9l1.4-3.4H78.3l1-1.8H73.2l-1,1.8h-3l-.7-1.8H62.2l.7,1.8H57.8L56.5,6.3h9l-.9,1.3H57.5s-4.9,12-5.1,12.6a1.8,1.8,0,0,0,.1,1.6,2,2,0,0,0,1.4.8H76s4.7-11.4,4.8-11.8a2.3,2.3,0,0,0-.3-2.2,2.5,2.5,0,0,0-2-1H71.9ZM62.5,14.4h9.1L71,15.8H62ZM61,18.2h9l-.5,1.3H60.4ZM72.6,12H63.5l.5-1.3h9.1Z"/><path class="cls-1" d="M51.3,8.1l4.1-3.6C53.9,2.2,49.7.7,49.7.7l-4,3.7a18.5,18.5,0,0,1,5.6,3.7"/><path class="cls-1" d="M53.7,23.7c-2.4,0-5.2-1.1-3.5-5.1l4.1-9.7H45.1l-1.4,3.4h2.1C44,17,42.3,22.5,39.7,23.6l1,4.1a22.8,22.8,0,0,0,4.4-2.4c.7-.4.6-.6,1.1.1s2.6,2,4.9,2H75.4L77,23.7Z"/><path class="cls-1" d="M22.7,13.5a2.3,2.3,0,0,0-2-1H18.4l1.9-1.2h5l1.4-3.6H24.5a19,19,0,0,0,3.6-5.1H19.4L20.1,1H13.6L13,2.6H8.1L6.7,6.2h4.8l-.6,1.5H5.5L4,11.3h7.7a32.5,32.5,0,0,1-8.4,1.9s-2,4.7-2.6,6.3l2.8-.6L0,27.4H18.2S22.7,16.2,23,15.7a2.4,2.4,0,0,0-.3-2.2M13.3,23.6h-5L9,21.9h5Zm2.3-5.5H10.5l.7-1.9h5.1ZM17.3,7.7l.6-1.5h2.6l-2,1.5Z"/><path class="cls-1" d="M43.7,2.6a2.6,2.6,0,0,0-2-1.1H30.8L26,13.3h0L20.2,27.4h7l1-2.3H32a5.7,5.7,0,0,0,3.1-.7,7.9,7.9,0,0,0,2-2.9l2.6-6.4a2.8,2.8,0,0,0-.2-2.3,2.5,2.5,0,0,0-2.1-1h1.8a3.2,3.2,0,0,0,1.7-.6,4.5,4.5,0,0,0,1-1.4c.2-.4,1.8-4.6,2-5.1a2.3,2.3,0,0,0-.2-2.1M31.5,20.9A1.5,1.5,0,0,1,30.1,22h-1l3.5-8.6h2s-2.8,6.9-3.1,7.5M36.3,9.2a1.6,1.6,0,0,1-1.4,1.1h-1l2.3-5.9h2L36.3,9.2"/><path class="cls-1" d="M134.2,39.1l.6-1.4h-1.4l.6-1.4h-3.2l-.5,1.4h-4.1l.5-1.4h-3.1l-.6,1.4h-1.3l-.6,1.4h1.4l-1,2.3h-1.8l-.6,1.4h14.3l.5-1.4h-2l.9-2.3Zm-5.4,2.3h-4.1l.9-2.3h4.1Z"/><path class="cls-1" d="M126.7,43.3c.2.8,1.3,3,5.1,3.5l1-2.5a5.6,5.6,0,0,1-2.7-1Z"/><path class="cls-1" d="M118.5,44.4l-1,2.5c5.5,0,7.7-2.9,8.2-3.6H122a6.1,6.1,0,0,1-3.5,1.1"/><polygon class="cls-1" points="140 36.8 136.9 36.8 136.3 38.2 139.4 38.2 140 36.8"/><polygon class="cls-1" points="139 39.2 135.9 39.2 135.3 40.6 138.4 40.6 139 39.2"/><path class="cls-1" d="M138.5,43.2,137,41.7a6.6,6.6,0,0,1-3.2,2.4l-1,2.7,1.5-.5a7.9,7.9,0,0,0,4.2-3.1"/><path class="cls-1" d="M147,39.6l2-1.4h1l.6-1.4H147l.2-.6h-3.1l-.3.6h-3.3l-.6,1.4H141a4.4,4.4,0,0,0,1.1,1.4,13.7,13.7,0,0,1-2.8.2l-1,2.5h1.3c-.2,1.1-1,2.6-3.2,4.6h3.7a4.7,4.7,0,0,0,1-1.3h2.5l-.5,1.3h3.2l1.9-4.7h1l.9-2.3a13.2,13.2,0,0,1-3.1-.3m-1.1-1.4-1.7,1.1-.9-1.1ZM141.8,44l.3-.5h2.4l-.2.5Zm3.3-2h-2.6a.6.6,0,0,0,.1-.4l1.5-.6a3.3,3.3,0,0,0,1.2.5Z"/><path class="cls-1" d="M96.2,41.2a1,1,0,0,0-.8-.5h-1l.8-.5h2l.6-1.4h-.9a6.8,6.8,0,0,0,1.5-2H94.8l.3-.7H92.5l-.3.7H90.3l-.6,1.4h2l-.3.6H89.2l-.5,1.4h3.1a10.4,10.4,0,0,1-3.5.8l-1,2.6,1.1-.3L87,46.7h7.3l2-4.7a1.1,1.1,0,0,0-.1-.8m-3.8,4h-2l.2-.7h2.1Zm.9-2.2h-2l.2-.8h2.1Zm.7-4.2.3-.6h1l-.8.6Z"/><path class="cls-1" d="M104.6,36.8a1,1,0,0,0-.8-.5H99.4l-1.9,4.8h0l-2.3,5.7H98l.4-1h1.5l1.3-.2a5,5,0,0,0,.8-1.2c.1-.4,1-2.5,1-2.6a.8.8,0,0,0-.1-.9,1,1,0,0,0-.8-.4h.7l.7-.3c.2-.1.3-.4.4-.5l.8-2.1a.8.8,0,0,0-.1-.8m-4.9,7.3a.6.6,0,0,1-.6.5h-.4l1.5-3.5h.8l-1.3,3m1.9-4.7a.5.5,0,0,1-.5.4h-.4l.9-2.3h.8a20.5,20.5,0,0,1-.8,1.9"/><path class="cls-1" d="M119.3,36.8a1,1,0,0,0-.8-.5H106.7L103,45.4a1,1,0,0,0,.1.9,1,1,0,0,0,.8.5h4.8l1.6-2.3h-3.8l.7-1.7h3.4c.3.8,1.5,3,5.9,4l1-2.5a5.8,5.8,0,0,1-3.9-1.5h3.8l.6-1.4h-5.1a3.2,3.2,0,0,1-.2-1.2h5.6l1.1-2.5a1,1,0,0,0-.1-.9m-9,4.6h-2.5l.4-1.2h2a3.8,3.8,0,0,0,.1,1.2m-1.5-2.6.5-1h6.9l-.4,1Z"/><path class="cls-1" d="M272.7,39.1l.5-1.4h-1.4l.6-1.4h-3.1l-.6,1.4h-4.1l.6-1.4H262l-.5,1.4h-1.4l-.6,1.4h1.4l-.9,2.3h-1.8l-.6,1.4h14.2l.6-1.4h-2.1l1-2.3Zm-5.5,2.3h-4.1l.9-2.3h4.1Z"/><path class="cls-1" d="M265.1,43.3c.3.8,1.3,3,5.1,3.5l1-2.5a6,6,0,0,1-2.7-1Z"/><path class="cls-1" d="M256.9,44.4l-1,2.5c5.5,0,7.7-2.9,8.2-3.6h-3.7a5.7,5.7,0,0,1-3.5,1.1"/><polygon class="cls-1" points="278.4 36.8 275.3 36.8 274.7 38.2 277.8 38.2 278.4 36.8"/><polygon class="cls-1" points="277.4 39.2 274.3 39.2 273.7 40.7 276.8 40.7 277.4 39.2"/><path class="cls-1" d="M277,43.2l-1.6-1.5a6.9,6.9,0,0,1-3.1,2.4l-1.1,2.7,1.6-.5a8.8,8.8,0,0,0,4.2-3.1"/><path class="cls-1" d="M285.4,39.6l2-1.4h1l.6-1.4h-3.6l.2-.6h-3.1l-.2.6H279l-.6,1.4h1a4.4,4.4,0,0,0,1.1,1.4,24,24,0,0,1-2.8.3l-1,2.4H278c-.2,1.1-1,2.6-3.2,4.6h3.8a6.3,6.3,0,0,0,.9-1.3h2.6l-.5,1.3h3.1l1.9-4.7h1l.9-2.3a13.6,13.6,0,0,1-3.1-.3m-1-1.4-1.8,1.1-.9-1.1ZM280.3,44c.1-.1.1-.3.2-.5h2.4l-.2.5Zm3.2-2H281a.6.6,0,0,1,.1-.4l1.4-.5,1.2.4Z"/><path class="cls-1" d="M257.7,36.8a1,1,0,0,0-.8-.5H245.1l-3.7,9.1a1,1,0,0,0,.1.9,1,1,0,0,0,.8.5h4.9l1.6-2.3h-3.9l.7-1.7H249c.3.8,1.6,3,6,4l1-2.4a7.1,7.1,0,0,1-4-1.6h3.9l.6-1.4h-5.1a3.2,3.2,0,0,1-.2-1.2h5.6l1-2.5a1,1,0,0,0-.1-.9m-9,4.6h-2.5l.5-1.2h2a4.7,4.7,0,0,0,0,1.2m-1.4-2.6.4-1h6.9l-.4,1Z"/><path class="cls-1" d="M238.8,38.3h4l.5-1.4H241l.4-.7h-2.5l-.4.7h-1.2l-.2-.7h-2.6l.3.7h-2l-.6,1.4h3.7l-.4.5h-2.9s-2,4.8-2,5a.8.8,0,0,0,0,.7.9.9,0,0,0,.6.3h8.9s1.9-4.6,1.9-4.7a1,1,0,0,0-.1-.9,1,1,0,0,0-.8-.4h-2.7Zm-4.2,3.2h3.7l-.2.6h-3.7ZM234,43h3.7l-.2.6h-3.7Zm4.7-2.4H235l.3-.6h3.6Z"/><path class="cls-1" d="M230.1,39c0-.1,1.7-1.5,1.7-1.5a5.6,5.6,0,0,0-2.3-1.5l-1.6,1.5a7.3,7.3,0,0,1,2.2,1.5"/><path class="cls-1" d="M231.1,45.3c-1,0-2.1-.5-1.4-2.1l1.6-3.9h-3.7l-.5,1.4h.8c-.7,1.9-1.4,4.1-2.4,4.5l.4,1.7a6.9,6.9,0,0,0,1.7-1c.3-.2.3-.2.5,0a2.3,2.3,0,0,0,2,.9h9.7l.7-1.5Z"/><path class="cls-1" d="M203.4,39.1l.6-1.4h-1.4l.5-1.4H200l-.6,1.4h-4.1l.6-1.4h-3.1l-.6,1.4h-1.4l-.6,1.4h1.4l-.9,2.3h-1.8l-.6,1.4h14.2l.6-1.4h-2l.9-2.3Zm-5.5,2.3h-4.1l.9-2.3h4.2Z"/><path class="cls-1" d="M195.8,43.3c.3.8,1.3,3,5.1,3.5l1.1-2.5a6,6,0,0,1-2.8-1Z"/><path class="cls-1" d="M187.6,44.4l-1,2.5c5.6,0,7.8-2.9,8.2-3.6h-3.7a5.7,5.7,0,0,1-3.5,1.1"/><polygon class="cls-1" points="209.1 36.8 206 36.8 205.4 38.2 208.5 38.2 209.1 36.8"/><polygon class="cls-1" points="208.1 39.2 205 39.2 204.4 40.6 207.5 40.6 208.1 39.2"/><path class="cls-1" d="M207.7,43.2l-1.6-1.5a6.9,6.9,0,0,1-3.1,2.4l-1.1,2.7,1.6-.5a8.8,8.8,0,0,0,4.2-3.1"/><path class="cls-1" d="M216.1,39.6l2-1.4h1l.6-1.4h-3.6l.3-.6h-3.2l-.2.6h-3.3l-.6,1.4h1a4.4,4.4,0,0,0,1.1,1.4,12.7,12.7,0,0,1-2.8.2l-1,2.5h1.3c-.2,1.1-1,2.6-3.1,4.6h3.7a6.3,6.3,0,0,0,.9-1.3h2.6l-.5,1.2h3.1l1.9-4.6h1l1-2.3a13.9,13.9,0,0,1-3.2-.3m-1-1.4-1.7,1.1-1-1.1ZM211,44c.1-.1.1-.3.2-.5h2.4l-.2.5Zm3.2-2h-2.5c0-.1.1-.3.1-.4l1.4-.6,1.2.5Z"/><path class="cls-1" d="M173,38.5h-3.1l-.3.9h-2.9l-.6,1.4H169l-1.7,4.3h-2.1l.6,1.7H168a2.2,2.2,0,0,0,2.3-1.5h0l1.8-4.5h.4l.6-1.4h-.4Z"/><path class="cls-1" d="M169.2,36.6l.2-.5H166l-.2.5h-5.9s-2.1,5.5-2.8,6.9a12.2,12.2,0,0,1-1.1,2.1l2.5,1.2,1.3-2.4,1.1-2.5.2.6.8-.3L160,46.8h2.9l2.5-6.3a5.4,5.4,0,0,0,1.2-1.7l-1.9-.7h8.9l.6-1.5Zm-8,4.5,1.2-3h1.8a9.5,9.5,0,0,1-3,3"/><path class="cls-1" d="M167.4,41.5l-2.2.4a17.5,17.5,0,0,1,0,2.3l2.2-.4a17.5,17.5,0,0,0,0-2.3"/><path class="cls-1" d="M188.4,36.8a1,1,0,0,0-.8-.5H175.9l-3.8,9.1a1,1,0,0,0,.1.9,1,1,0,0,0,.8.5h4.9l1.6-2.3h-3.8l.6-1.7h3.5c.3.8,1.5,3,5.9,4l1-2.5a6.1,6.1,0,0,1-4-1.5h3.9l.6-1.4h-5.1a3.2,3.2,0,0,1-.2-1.2h5.6l1-2.5a1,1,0,0,0-.1-.9m-9,4.6h-2.5l.5-1.2h2v1.2M178,38.8l.4-1h7l-.5,1Z"/><path class="cls-1" d="M24,37H20.9l-2.4,5.9a.9.9,0,0,0,.1,1,1.2,1.2,0,0,0,.8.4H24l-.2.5H19.7l-2.6,2h4.1l2.5-2-.8,2h3.5l.9-2,1.2,2h3.6l-1.3-2H27.3l.2-.5h5.1l.7-1.6H21.7Z"/><path class="cls-1" d="M33.8,36.8a1,1,0,0,0-.8-.5H25.5l-2.4,6H32c.9-2.2,1.8-4.5,1.9-4.6a1,1,0,0,0-.1-.9M27.6,39h2.6l-.2.5H27.3Zm3.2-1.5-.2.5H27.9l.3-.5Zm-3.9,3h2.7l-.2.5H26.7Z"/><path class="cls-1" d="M64.3,39.1l.6-1.4H63.5l.6-1.4H61l-.6,1.4H56.3l.6-1.4H53.7l-.5,1.4H51.8l-.6,1.4h1.4l-.9,2.3H49.8l-.5,1.4H63.5l.6-1.4H62l.9-2.3Zm-5.4,2.3H54.8l.9-2.3h4.1Z"/><path class="cls-1" d="M56.8,43.3c.2.8,1.3,3,5.1,3.5l1-2.5a5.6,5.6,0,0,1-2.7-1Z"/><path class="cls-1" d="M48.6,44.4l-1,2.5c5.5,0,7.7-2.9,8.2-3.6H52.1a5.7,5.7,0,0,1-3.5,1.1"/><polygon class="cls-1" points="70.1 36.8 67 36.8 66.4 38.2 69.5 38.2 70.1 36.8"/><polygon class="cls-1" points="69.1 39.2 66 39.2 65.4 40.6 68.5 40.6 69.1 39.2"/><path class="cls-1" d="M68.7,43.2l-1.6-1.5A6.9,6.9,0,0,1,64,44.1l-1.1,2.7,1.6-.5a8.8,8.8,0,0,0,4.2-3.1"/><path class="cls-1" d="M77.1,39.6l2-1.4h1l.6-1.4H77.1l.2-.6H74.2l-.3.6H70.6L70,38.2h1.1a4.4,4.4,0,0,0,1.1,1.4,13.7,13.7,0,0,1-2.8.2l-1,2.5h1.3c-.2,1.1-1,2.6-3.2,4.6h3.8a6.3,6.3,0,0,0,.9-1.3h2.5l-.5,1.2h3.2l1.9-4.6h1l.9-2.3a13.2,13.2,0,0,1-3.1-.3M76,38.2l-1.7,1.1-.9-1.1ZM72,44a1.7,1.7,0,0,1,.2-.5h2.4l-.2.5Zm3.2-2H72.6c.1-.1.1-.3.2-.4l1.4-.6a3.3,3.3,0,0,0,1.2.5Z"/><path class="cls-1" d="M49.4,36.8a1,1,0,0,0-.8-.5H36.8l-3.7,9.1a1,1,0,0,0,.1.9,1,1,0,0,0,.8.5h4.8l1.7-2.3H36.6l.7-1.7h3.4c.3.8,1.6,3,6,4l1-2.5a5.8,5.8,0,0,1-4-1.5h3.9l.5-1.4H43a9.6,9.6,0,0,1-.2-1.2h5.6l1.1-2.5a1,1,0,0,0-.1-.9m-9,4.6H37.9l.5-1.2h2a4.7,4.7,0,0,0,0,1.2m-1.5-2.6.5-1h6.9l-.4,1Z"/><path class="cls-1" d="M341.9,39.1l.6-1.4h-1.4l.6-1.4h-3.2l-.5,1.4h-4.1l.5-1.4h-3.1l-.6,1.4h-1.3l-.6,1.4h1.3l-.9,2.3h-1.8l-.6,1.4H341l.6-1.4h-2l.9-2.3Zm-5.4,2.3h-4.1l.9-2.3h4.1Z"/><path class="cls-1" d="M334.3,43.3c.3.8,1.4,3,5.2,3.5l1-2.5a5.6,5.6,0,0,1-2.7-1Z"/><path class="cls-1" d="M326.2,44.4l-1,2.5c5.5,0,7.7-2.9,8.2-3.6h-3.7a6.1,6.1,0,0,1-3.5,1.1"/><polygon class="cls-1" points="347.7 36.8 344.5 36.8 343.9 38.2 347.1 38.2 347.7 36.8"/><polygon class="cls-1" points="346.7 39.2 343.5 39.2 342.9 40.6 346.1 40.6 346.7 39.2"/><path class="cls-1" d="M346.2,43.2l-1.6-1.5a6.4,6.4,0,0,1-3.1,2.4l-1.1,2.7,1.6-.5a8.3,8.3,0,0,0,4.2-3.1"/><path class="cls-1" d="M354.7,39.6l2-1.4h1l.6-1.4h-3.7l.3-.6h-3.1l-.3.6h-3.3l-.6,1.4h1.1a5.3,5.3,0,0,0,1,1.4,12.7,12.7,0,0,1-2.8.2l-1,2.5h1.4a10.5,10.5,0,0,1-3.2,4.6h3.7a9.3,9.3,0,0,0,1-1.3h2.5l-.5,1.2h3.1l1.9-4.6h1l1-2.3a13.2,13.2,0,0,1-3.1-.3m-1.1-1.4-1.7,1.1-.9-1.1ZM349.5,44a.8.8,0,0,0,.2-.5h2.4l-.2.5Zm3.3-2h-2.6c0-.1.1-.3.1-.4l1.4-.6,1.2.5Z"/><path class="cls-1" d="M309.6,40.9l.3-.7,1.4.3,1.3-2.2c-4.3-1.1-5.1-2.3-5.1-2.3h-2.7a19.3,19.3,0,0,1-7.8,2v2.3l2.1-.3-.4.9h3.8l-.5,1.2h-4.4l-.7,1.6h4.4l-.6,1.5h-5.1l-.7,1.5h13.8l.7-1.5H304l.6-1.5H309l.7-1.6h-4.4l.5-1.2Zm-4.1-3.3a7.6,7.6,0,0,0,2.3,1.8h-5.9a10.4,10.4,0,0,0,3.6-1.8"/><path class="cls-1" d="M327.5,36.7a.9.9,0,0,0-.8-.4H314.6s-3.7,9-3.8,9.1a1,1,0,0,0,.1.9,1.2,1.2,0,0,0,.8.5h12.2l3.7-9.1a1.2,1.2,0,0,0-.1-1m-13.6,8.6,3.1-7.6h7.6l-.4.9h0l-2.7,6.7Z"/><polygon class="cls-1" points="316.9 39.3 318.8 39.3 318.2 40.8 316.3 40.8 315.8 42.1 317.7 42.1 317.1 43.5 315.2 43.5 314.6 44.8 321.1 44.8 321.9 42.9 320.7 42.9 320.4 43.5 319.8 43.5 320.4 42.1 322.2 42.1 322.7 40.8 320.9 40.8 321.5 39.3 323.4 39.3 323.9 38.1 317.4 38.1 316.9 39.3"/><path class="cls-1" d="M300.3,30.4c.1,0,.4,0,.4.3a2.4,2.4,0,0,1-.5,1l.3.3c.3.3.3.3.3.4s-.1.3-.2.3h-.2l-.3-.4v2c0,.1-.1.2-.3.2a.2.2,0,0,1-.2-.2V32.5l-.4.3h-.1a.3.3,0,0,1-.3-.3c0-.1,0-.2.4-.4a6.2,6.2,0,0,0,.9-1.1c0-.1-.1-.1-.2-.1h-.8a.3.3,0,0,1-.3-.3c0-.2.2-.2.3-.2h.5v-.6c0-.2,0-.3.2-.3s.3.2.3.3v.6Zm2.1,3.9a.2.2,0,0,1-.2.2c-.3,0-.3-.1-.3-.2v-1h-.5c-.4,0-.6-.1-.6-.5V30.9c0-.5.2-.6.6-.6h.5v-.5c0-.1,0-.3.3-.3s.2.1.2.3v.5h.6c.4,0,.6.1.6.6v1.9c0,.4-.2.5-.6.5h-.6Zm-.5-2.7v-.8h-.4a.2.2,0,0,0-.2.2v.6Zm0,.4h-.6v.7a.2.2,0,0,0,.2.2h.4Zm.5-.4h.7V31c0-.2-.1-.2-.2-.2h-.5Zm0,.4v.9h.5a.2.2,0,0,0,.2-.2V32Z"/><path class="cls-1" d="M304.3,32.7a.2.2,0,0,1-.2-.2c0-.2.1-.3.2-.3h4.4c.1,0,.3,0,.3.3s-.2.2-.3.2h-1.9v1.2c0,.5-.3.6-.7.6h-.5c-.1,0-.2-.2-.2-.3s.2-.2.3-.2h.3c.2,0,.3-.1.3-.2v-1Zm1.1-.9c-.1,0-.2,0-.2-.2l-.8.4c-.2,0-.3-.2-.3-.4s.1-.1.2-.2a3.7,3.7,0,0,0,1.4-.9h-1.3c-.1,0-.3,0-.3-.3s.2-.2.3-.2H306c0-.1.1-.3.1-.4h.2c.1,0,.3,0,.3.2V30h2.1c.1,0,.2,0,.2.2s-.2.3-.2.3h-1.3l.4.4c.3.3.5.3,1,.5l.2.2c0,.2-.1.4-.3.4l-.9-.4c0,.1,0,.2-.2.2ZM304.1,34c0-.2.1-.2.4-.4l.5-.4q.2-.3.3-.3a.3.3,0,0,1,.3.3c0,.1-.1.3-.4.5s-.6.6-.8.6a.3.3,0,0,1-.3-.3m3.4-2.7a3,3,0,0,1-.8-.8h-.4a2.9,2.9,0,0,1-.7.8Zm.7,2.8-.7-.7v-.2a.3.3,0,0,1,.3-.3l.4.3a1.8,1.8,0,0,0,.7.5c0,.1.1.1.1.3a.3.3,0,0,1-.3.3l-.4-.2"/><path class="cls-1" d="M310.4,31.8a5.2,5.2,0,0,1-.4,2.3c-.1.3-.2.3-.3.3s-.4-.1-.4-.2a.4.4,0,0,1,.1-.3,3.1,3.1,0,0,0,.4-1.2,3.1,3.1,0,0,0,.1-.9V29.9c0-.1,0-.3.2-.3s.3.1.3.3Zm1.7,2.1c0,.1,0,.3-.2.3s-.3-.1-.3-.3V30c0-.1,0-.3.2-.3a.3.3,0,0,1,.3.3Zm1.9.3a.3.3,0,0,1-.3.3.3.3,0,0,1-.3-.3V29.9c0-.1,0-.3.2-.3s.4.1.4.3Z"/><path class="cls-1" d="M314.9,34.4a.3.3,0,0,1-.3-.3c0-.2,0-.2.3-.3l.7-.5h.3a.3.3,0,0,1,.3.3,2.5,2.5,0,0,1-1.3.9m2.4-1.4v1.2c0,.3-.1.3-.3.3s-.2-.1-.2-.3V33h-1.4c-.4,0-.6-.1-.6-.6V30.1a.3.3,0,0,1,.3-.3c.2,0,.2.2.2.3v2.2a.2.2,0,0,0,.2.2h3.7c.3,0,.3.2.3.3s-.1.2-.2.2Zm1.8-1.3c0,.4-.2.5-.5.5h-2.3c-.4,0-.5-.2-.5-.5V30.2c0-.3.1-.5.5-.5h2.3c.3,0,.5.1.5.5Zm-.5-1.3h0a.2.2,0,0,0-.2-.2h-2a.3.3,0,0,0-.1.2h2.3Zm0,.4h-2.3v.3h2.3Zm-2.3.7h0v.2h2l.2-.2h-2.3Zm1.9,1.7.3.2.8.4c.1.1.2.1.2.3a.3.3,0,0,1-.3.3,2.2,2.2,0,0,1-.8-.5c-.2-.1-.5-.3-.5-.4s.2-.3.3-.3"/><path class="cls-1" d="M320.3,30.9h-.1c-.3,0-.3-.1-.3-.3s0-.3.2-.3h.6L324,30h.2a.3.3,0,0,1,.3.3c0,.3-.2.3-.5.3s-2.1.9-2.1,1.8.9,1.1,1.3,1.2.3.1.3.3a.3.3,0,0,1-.3.3c-.2,0-1.9-.2-1.9-1.7a1.9,1.9,0,0,1,1-1.7l.3-.2Zm3.6,1.4a.2.2,0,0,1-.2.2c-.1,0-.2,0-.2-.2l-.4-.5c0-.1-.1-.1-.1-.2s.2-.2.3-.2.6.8.6.9m.7-.4a.2.2,0,0,1-.2.2l-.2-.2a3.1,3.1,0,0,0-.4-.6h0c0-.2.1-.3.3-.2a1.9,1.9,0,0,1,.5.9"/><path class="cls-1" d="M325.4,30c.1-.1.1-.2.3-.2s.3.1.3.2v.3a8.8,8.8,0,0,0-.2,2c0,.7.1,1.1.1,1.5a.3.3,0,0,1,.1.2c0,.2-.3.2-.3.2h-.3a5.1,5.1,0,0,1-.2-1.9c0-.8.2-2,.2-2.2m3.2,2.7c.5.1.8.3.8.4a.2.2,0,0,1,.2.2.3.3,0,0,1-.3.3h-.2l-.5-.2a.7.7,0,0,1-.1.5c-.1.3-.5.4-.9.4s-1.2-.3-1.2-.9a1,1,0,0,1,1.1-.9h.5V31.3h-.6c-.8,0-1,0-1-.3a.3.3,0,0,1,.3-.3H328V30c0-.3.2-.3.3-.3a.3.3,0,0,1,.3.3v.7h.6c.2,0,.2.3.2.3s-.1.3-.8.4Zm-1.1.3c-.3,0-.5.1-.5.3s.2.4.5.4.5-.2.5-.7h-.5"/></g></g></svg>